<?xml version="1.0" standalone="no"?>
<!DOCTYPE svg PUBLIC "-//W3C//DTD SVG 20010904//EN"
 "http://www.w3.org/TR/2001/REC-SVG-20010904/DTD/svg10.dtd">
<svg version="1.0" xmlns="http://www.w3.org/2000/svg"
 width="400.000000pt" height="400.000000pt" viewBox="0 0 400.000000 400.000000"
 preserveAspectRatio="xMidYMid meet">
<metadata>
Created by potrace 1.14, written by Peter Selinger 2001-2017
</metadata>
<g transform="translate(0.000000,400.000000) scale(0.100000,-0.100000)"
fill="#000000" stroke="none">
<path d="M1159 3499 c-25 -16 7 -26 114 -33 56 -4 118 -12 137 -18 105 -35
183 -132 338 -418 13 -25 27 -49 32 -55 4 -5 19 -31 33 -57 14 -25 59 -104
100 -175 40 -70 86 -150 101 -178 15 -27 63 -110 106 -185 43 -75 90 -158 106
-185 34 -63 47 -84 128 -224 36 -62 66 -115 66 -117 0 -3 11 -23 26 -45 28
-45 57 -96 86 -152 11 -20 24 -40 29 -42 5 -3 10 369 11 842 3 723 5 853 18
883 33 77 80 107 192 123 62 9 83 16 83 27 0 13 -101 15 -846 17 -501 1 -851
-2 -860 -8z"/>
<path d="M1450 1447 c0 -913 1 -897 -53 -955 -37 -40 -78 -55 -187 -69 -49 -6
-66 -15 -56 -32 5 -8 257 -11 862 -11 847 0 854 0 854 20 0 18 -7 20 -57 21
-32 0 -65 2 -73 3 -8 2 -40 6 -70 10 -70 9 -142 48 -192 106 -35 39 -115 168
-200 320 -29 52 -43 77 -142 248 -40 70 -84 148 -99 174 -14 25 -59 104 -100
175 -40 70 -86 150 -101 176 -15 27 -78 137 -140 245 -126 219 -143 249 -193
339 -19 35 -39 65 -44 69 -6 3 -9 -328 -9 -839z"/>
</g>
</svg>
